<svg xmlns="http://www.w3.org/2000/svg" version="1.1" xmlns:xlink="http://www.w3.org/1999/xlink" xmlns:svgjs="http://svgjs.dev/svgjs" width="1000" height="1000" viewBox="0 0 1000 1000"><rect width="1000" height="1000" fill="#000000"></rect><g transform="matrix(0.7,0,0,0.7,149.57575757575756,282.1265587044535)"><svg viewBox="0 0 396 247" data-background-color="#ffbe79" preserveAspectRatio="xMidYMid meet" height="623" width="1000" xmlns="http://www.w3.org/2000/svg" xmlns:xlink="http://www.w3.org/1999/xlink"><g id="tight-bounds" transform="matrix(1,0,0,1,0.2400000000000091,-0.09999999999999432)"><svg viewBox="0 0 395.52 247.2" height="247.2" width="395.52"><g><svg></svg></g><g><svg viewBox="0 0 395.52 247.2" height="247.2" width="395.52"><g transform="matrix(1,0,0,1,75.54432,83.16010979472141)"><svg viewBox="0 0 244.43135999999998 80.87978041055717" height="80.87978041055717" width="244.43135999999998"><g><svg viewBox="0 0 244.43135999999998 80.87978041055717" height="80.87978041055717" width="244.43135999999998"><g><svg viewBox="0 0 244.43135999999998 80.87978041055717" height="80.87978041055717" width="244.43135999999998"><g><svg viewBox="0 0 244.43135999999998 80.87978041055717" height="80.87978041055717" width="244.43135999999998"><g><svg viewBox="0 0 244.43135999999998 80.87978041055717" height="80.87978041055717" width="244.43135999999998"><g><svg viewBox="0 0 244.43135999999998 80.87978041055717" height="80.87978041055717" width="244.43135999999998"><g transform="matrix(1,0,0,1,0,0)"><svg width="244.43135999999998" viewBox="0.4000000059604645 -33.099998474121094 102.29000091552734 33.849998474121094" height="80.87978041055717" data-palette-color="#0b64f5"><path d="M7.3 0L0.4 0 0.4-0.5 1.65-0.95Q2.65-1.35 3.2-1.93 3.75-2.5 4.1-3.55L4.1-3.55 14.4-33.1 18.65-33.1 28.8-3.35Q29.2-2.25 29.7-1.68 30.2-1.1 31.25-0.7L31.25-0.7 31.85-0.5 31.85 0 19.15 0 19.15-0.5 19.9-0.75Q20.95-1.15 21.18-1.88 21.4-2.6 21.1-3.6L21.1-3.6 18.75-10.8 7.65-10.8 5.25-3.75Q4.9-2.65 5.03-2 5.15-1.35 6.2-0.95L6.2-0.95 7.3-0.5 7.3 0ZM13.4-27.35L8-11.8 18.45-11.8 13.4-27.35ZM40 0.75L40 0.75Q38.2 0.75 36.95-0.5 35.7-1.75 35.7-3.5L35.7-3.5Q35.7-5.25 36.95-6.55 38.2-7.85 40-7.85L40-7.85Q41.8-7.85 43.05-6.55 44.3-5.25 44.3-3.5L44.3-3.5Q44.3-1.75 43.05-0.5 41.8 0.75 40 0.75ZM65.69 0L58.79 0 58.79-0.5 60.04-0.95Q61.04-1.35 61.59-1.93 62.14-2.5 62.49-3.55L62.49-3.55 72.79-33.1 77.04-33.1 87.19-3.35Q87.59-2.25 88.09-1.68 88.59-1.1 89.64-0.7L89.64-0.7 90.24-0.5 90.24 0 77.54 0 77.54-0.5 78.29-0.75Q79.34-1.15 79.57-1.88 79.79-2.6 79.49-3.6L79.49-3.6 77.14-10.8 66.04-10.8 63.64-3.75Q63.29-2.65 63.42-2 63.54-1.35 64.59-0.95L64.59-0.95 65.69-0.5 65.69 0ZM71.79-27.35L66.39-11.8 76.84-11.8 71.79-27.35ZM98.39 0.75L98.39 0.75Q96.59 0.75 95.34-0.5 94.09-1.75 94.09-3.5L94.09-3.5Q94.09-5.25 95.34-6.55 96.59-7.85 98.39-7.85L98.39-7.85Q100.19-7.85 101.44-6.55 102.69-5.25 102.69-3.5L102.69-3.5Q102.69-1.75 101.44-0.5 100.19 0.75 98.39 0.75Z" opacity="1" transform="matrix(1,0,0,1,0,0)" fill="#ffffff" class="undefined-text-0" data-fill-palette-color="primary" id="text-0"></path></svg></g></svg></g></svg></g></svg></g></svg></g></svg></g></svg></g><g><path d="M245.816 0c68.262 0 123.6 55.338 123.6 123.6 0 68.262-55.338 123.6-123.6 123.6-50.472 0-93.878-30.252-113.075-73.613l4.001 0c18.954 41.291 60.665 69.966 109.074 69.966 66.248 0 119.953-53.705 119.953-119.953 0-66.248-53.705-119.953-119.953-119.953-48.408 0-90.12 28.675-109.074 69.966h-4.001c19.197-43.361 62.603-73.613 113.075-73.613z" fill="#374151" stroke="transparent" data-fill-palette-color="tertiary"></path></g></svg></g><defs></defs></svg><rect width="395.52" height="247.2" fill="none" stroke="none" visibility="hidden"></rect></g></svg></g></svg>